<?xml version="1.0" encoding="windows-1252"?>
<!-- Generator: Adobe Illustrator 19.1.1, SVG Export Plug-In . SVG Version: 6.00 Build 0)  -->
<svg xmlns="http://www.w3.org/2000/svg" xmlns:xlink="http://www.w3.org/1999/xlink" version="1.1" id="Layer_1" x="0px" y="0px" viewBox="0 0 48 48" style="enable-background:new 0 0 48 48;" xml:space="preserve">
<path style="fill:#FF3D00;" d="M34,27H14c0-5.523,4.477-10,10-10S34,21.477,34,27z"/>
<path style="fill:#DD2C00;" d="M34,27H24c0-5.523,0-10,0-10C29.523,17,34,21.477,34,27z"/>
<circle style="fill:none;stroke:#455A64;stroke-width:2;stroke-miterlimit:10;" cx="24" cy="14" r="2"/>
<line style="fill:none;stroke:#455A64;stroke-width:2;stroke-linecap:round;stroke-linejoin:round;stroke-miterlimit:10;" x1="24" y1="3" x2="24" y2="12"/>
<path style="fill:#CFD8DC;" d="M34,27c0,6.986-10,20-10,20S14,33.986,14,27H34z"/>
<path style="fill:#ECEFF1;" d="M33.224,27H14.776C17.12,34.042,24,43,24,43S30.88,34.042,33.224,27z"/>
<path style="fill:#455A64;" d="M14,27c0,0.32,0.028,0.656,0.068,1h19.865C33.972,27.656,34,27.32,34,27c0-0.338-0.018-0.671-0.05-1  H14.05C14.018,26.329,14,26.662,14,27z"/>
<path style="fill:#455A64;" d="M24,31c-2.206,0-4-1.794-4-4s1.794-4,4-4s4,1.794,4,4S26.206,31,24,31z"/>
<circle style="fill:#FFFFFF;" cx="24" cy="27" r="2"/>
</svg>